<?xml version="1.0" encoding="UTF-8"?>
<svg width="240" height="260.98" version="1.1" viewBox="0 0 63.500012 69.050012" xmlns="http://www.w3.org/2000/svg">
 <g transform="translate(190.5 -34.302)" fill="#dc30a9">
  <g>
   <path d="m-147.01 71.158-14.18-6.4336-22.354 19.362 19.362-27.241-6.5757-9.5678 14.455 6.5756 22.354-19.362-19.362 27.241z" style="paint-order:stroke markers fill"/>
   <path d="m-179.38 71.21-0.54346-1.0412-1.0354 0.5436 0.53774 1.0354zm-1.8878-4.176-0.3604-1.1156-1.1155 0.3606 0.36612 1.1154zm-1.064-4.4562-0.0972-0.635v-0.03l-6e-3 -0.03-0.0292-0.4288-1.167 0.08 0.0342 0.4808 6e-3 0.046 0.1028 0.6866zm-0.1028-5.6976-1.167-0.108-0.1086 1.1668 1.167 0.108zm0.86378-4.4334 6e-3 -0.03 6e-3 -0.03-0.3032-0.08-0.8123-0.2812-6e-3 0.03-0.012 0.046-0.28614 1.1156 1.1327 0.293zm1.4187-3.6326 0.33752-0.6234-1.0297-0.5548-0.3604 0.6634-0.018 0.042-0.1716 0.383 1.0754 0.4694zm2.8545-4.4504-0.9267-0.7208-0.7208 0.9268 0.92674 0.7148zm3.1863-3.2894-0.78942-0.8638-0.8638 0.7952 0.79516 0.8582zm3.1806-2.2652 0.0292-0.03h0.012l0.52058-0.281-0.56062-1.0298-0.56058 0.303-0.0402 0.03-0.4462 0.2928 0.6407 0.9842zm23.076-2.008-0.2516-0.132-0.0456-0.03-0.81804-0.3432-0.45194 1.0754 0.77226 0.326 0.2516 0.132zm-18.323-0.132-0.38328-1.1098-1.104 0.3834 0.38328 1.1038zm13.798-1.539-1.1384-0.2752-0.26886 1.144 1.1384 0.2694zm-9.5075 0.5378h0.1332l-0.1028-1.1668h-0.1832l-1.0183 0.178 0.20034 1.1554zm4.7995-1.3042-0.89238-0.062h-0.32588l0.012 1.167h0.23462l0.88668 0.062z" color="#000000" color-rendering="auto" dominant-baseline="auto" image-rendering="auto" shape-rendering="auto" solid-color="#000000" style="font-feature-settings:normal;font-variant-alternates:normal;font-variant-caps:normal;font-variant-ligatures:normal;font-variant-numeric:normal;font-variant-position:normal;isolation:auto;mix-blend-mode:normal;paint-order:stroke markers fill;shape-padding:0;text-decoration-color:#000000;text-decoration-line:none;text-decoration-style:solid;text-indent:0;text-orientation:mixed;text-transform:none;white-space:normal"/>
   <path d="m-138.12 47.367 0.53772 1.0408 1.0411-0.5432-0.54344-1.0354zm1.882 4.1756 0.36612 1.1156 1.1098-0.3602-0.3604-1.1156zm1.064 4.4564 0.1028 0.6408v0.03l6e-3 0.03 0.0292 0.429 1.167-0.078-0.0342-0.4804-6e-3 -0.046-0.103-0.6866zm0.1086 5.6976 1.167 0.108 0.1032-1.167-1.167-0.108zm-0.86382 4.4334-6e-3 0.03-6e-3 0.03 0.29172 0.08 0.81802 0.2812 0.012-0.03 0.012-0.048 0.28586-1.1096-1.1327-0.293zm-1.4015 3.5926-0.012 0.03-0.012 0.03-0.33752 0.6176 1.0354 0.555 0.35466-0.6636 0.0234-0.042 0.1658-0.3834-1.0697-0.4692zm-2.8717 4.4906 0.92674 0.7208 0.71506-0.9268-0.92674-0.7152zm-3.192 3.2892 0.79512 0.8636 0.8638-0.7948-0.79514-0.8582zm-3.1749 2.2654-0.0292 0.03h-0.012l-0.52058 0.281 0.5549 1.0296 0.5606-0.3032 0.0456-0.03 0.4462-0.293-0.6407-0.9838zm-23.076 2.0078 0.2516 0.132 0.0402 0.03 0.81804 0.3434 0.45764-1.0756-0.77796-0.326h-6e-3l-0.0342-0.03-0.21176-0.114zm18.317 0.138 0.38328 1.104 1.1098-0.3832-0.38328-1.1042zm-13.798 1.533 1.1441 0.2754 0.26888-1.1444-1.1441-0.2694zm9.5132-0.5378h-0.1382l0.1086 1.1672h0.1832l1.0182-0.178-0.20034-1.1558zm-4.7995 1.3044 0.89242 0.064h0.32004l-0.012-1.1672h-0.22874l-0.8924-0.064z" color="#000000" color-rendering="auto" dominant-baseline="auto" image-rendering="auto" shape-rendering="auto" solid-color="#000000" style="font-feature-settings:normal;font-variant-alternates:normal;font-variant-caps:normal;font-variant-ligatures:normal;font-variant-numeric:normal;font-variant-position:normal;isolation:auto;mix-blend-mode:normal;paint-order:stroke markers fill;shape-padding:0;text-decoration-color:#000000;text-decoration-line:none;text-decoration-style:solid;text-indent:0;text-orientation:mixed;text-transform:none;white-space:normal"/>
  </g>
  <path d="m-184.18 100.03q-0.1072 1.3334-0.9091 2.276-0.52926 0.6422-1.4057 0.9006-0.47482 0.146-1.0823 0.146-1.131 0-1.8176-0.5584-0.57028-0.4608-0.85844-1.2428-0.28752-0.789-0.24512-1.8154l1.8343-0.126q0.02 1.11 0.4397 1.6058 0.306 0.377 0.75486 0.356 0.63116-0.03 1.0642-0.6142 0.2241-0.3002 0.27626-0.845 0.0768-0.8028-0.56736-1.5848-0.52106-0.5376-1.5561-1.6128-0.86824-0.9216-1.189-1.6548-0.34704-0.8236-0.25478-1.7872 0.1664-1.7382 1.418-2.6322 0.77056-0.5374 1.8388-0.5374 1.0263 0 1.7153 0.4606 0.53142 0.3562 0.81902 0.9986 0.28824 0.6352 0.28548 1.4662l-1.8752 0.335q-2e-3 -0.782-0.33052-1.2148-0.23462-0.321-0.73028-0.321-0.52362 0-0.84768 0.4676-0.25956 0.377-0.31304 0.9356-0.0836 0.8728 0.58356 1.7804 0.2534 0.3422 0.77424 0.8098 0.61678 0.5586 0.81182 0.782 0.63698 0.712 0.96178 1.4032 0.1508 0.3212 0.23574 0.6006 0.20756 0.677 0.1692 1.2216z"/>
  <path d="m-179.22 103.35q-1.2707 0-2.0725-0.8866-0.8018-0.8868-0.68082-2.1504l0.66778-6.9748q0.121-1.2636 1.0995-2.1504 0.97922-0.8936 2.2359-0.8936 1.2707 0 2.0648 0.8936 0.8011 0.8936 0.68078 2.1504l-0.139 1.452h-1.9898l0.1424-1.487q0.0442-0.4606-0.25328-0.782-0.28974-0.328-0.75054-0.328-0.4538 0-0.80636 0.328-0.35196 0.3214-0.39606 0.782l-0.6691 6.9888q-0.044 0.4606 0.24632 0.782 0.29038 0.3212 0.74418 0.3212 0.46082 0 0.81272-0.3212 0.35892-0.3214 0.40302-0.782l0.1678-1.7524h1.9898l-0.1698 1.7734q-0.1216 1.2706-1.1002 2.1572-0.97788 0.8798-2.2276 0.8798z"/>
  <path d="m-172.03 103.19h-1.913l1.2192-12.735h1.913z"/>
  <path d="m-166.29 90.456 1.7225 8.5526 0.81884-8.5526h1.92l-1.2193 12.735h-2.0596l-1.8654-8.1546-0.78072 8.1546h-1.913l1.2192-12.735z"/>
  <path d="m-157.76 92.377h-2.0387l0.1838-1.9202h5.9903l-0.1838 1.9202h-2.0317l-1.0354 10.815h-1.92z"/>
  <path d="m-150.73 103.19h-1.913l1.2192-12.735h1.913z"/>
  <path d="m-143.13 103.19h-5.2293l1.2192-12.735h1.913l-1.0367 10.829h3.3163z"/>
  <path d="m-135.92 103.19h-5.2293l1.2192-12.735h1.913l-1.0368 10.829h3.3163z"/>
  <path d="m-131.19 100.27-0.74784 2.9254h-1.9968l3.3766-12.735h2.6461l0.91018 12.735h-2.0107l-0.1738-2.9254zm1.6651-6.891-1.1927 5.0198h1.4243z"/>
 </g>
</svg>
