<svg width="240" height="260.98" viewBox="0 0 63.5 69.05" xmlns="http://www.w3.org/2000/svg"><g fill="#dc30a9"><path d="M43.49 36.856l-14.18-6.434L6.956 49.784l19.362-27.24-6.576-9.568 14.455 6.575L56.551.19 37.19 27.43z" paint-order="stroke markers fill"/><path d="M11.12 36.908l-.543-1.041-1.036.543.538 1.036zm-1.888-4.176l-.36-1.116-1.116.361.366 1.115zm-1.064-4.456l-.097-.635v-.03l-.006-.03-.03-.429-1.166.08.034.48.006.047.103.686zm-.103-5.698l-1.167-.108-.108 1.167 1.167.108zm.864-4.433l.006-.03.006-.03-.303-.08-.812-.281-.006.03-.012.046-.286 1.115 1.132.293zm1.419-3.633l.337-.623-1.03-.555-.36.663-.018.042-.171.383 1.075.47zm2.854-4.45l-.926-.721-.721.927.927.715zm3.187-3.29l-.79-.863-.864.795.796.858zm3.18-2.265l.03-.03h.011l.521-.28-.56-1.03-.561.302-.04.03-.447.293.641.984zM42.645 2.5l-.251-.132-.046-.03-.818-.343-.452 1.075.772.326.252.132zm-18.323-.132l-.383-1.11-1.104.384.383 1.104zM38.12.828L36.982.553l-.269 1.144 1.138.27zm-9.507.538h.133L28.643.199h-.183l-1.018.178.2 1.156zm4.8-1.304L32.52 0h-.326l.012 1.167h.235l.886.062zM52.38 13.065l.538 1.04 1.04-.542-.543-1.036zm1.882 4.176l.366 1.115 1.11-.36-.36-1.116zm1.064 4.456l.103.64v.03l.006.03.029.43 1.167-.078-.034-.48-.006-.047-.103-.686zm.109 5.698l1.167.108.103-1.167-1.167-.108zm-.864 4.433l-.006.03-.006.03.292.08.818.281.012-.03.012-.048.285-1.11-1.132-.292zm-1.402 3.593l-.012.03-.012.03-.337.617 1.035.555.355-.663.023-.042.166-.384-1.07-.469zm-2.871 4.49l.926.721.715-.927-.926-.715zm-3.192 3.29l.795.863.863-.795-.795-.858zm-3.175 2.265l-.03.03h-.012l-.52.28.555 1.03.56-.303.046-.03.446-.293-.64-.984zm-23.076 2.008l.251.132.04.03.819.343.457-1.076-.778-.326h-.006l-.034-.03-.212-.114zm18.317.138l.383 1.104 1.11-.384-.384-1.104zm-13.798 1.533l1.144.275.269-1.144-1.144-.27zm9.513-.538h-.138l.108 1.167h.183l1.019-.178-.2-1.156zm-4.8 1.304l.893.064h.32l-.012-1.167h-.229l-.892-.064z" color="#000" solid-color="#000000" style="font-feature-settings:normal;font-variant-alternates:normal;font-variant-caps:normal;font-variant-ligatures:normal;font-variant-numeric:normal;font-variant-position:normal;isolation:auto;mix-blend-mode:normal;shape-padding:0;text-decoration-color:#000;text-decoration-line:none;text-decoration-style:solid;text-indent:0;text-orientation:mixed;text-transform:none" paint-order="stroke markers fill" white-space="normal"/><path d="M6.32 65.728q-.107 1.333-.91 2.276-.528.642-1.405.9-.475.147-1.082.147-1.131 0-1.818-.559-.57-.46-.858-1.243-.288-.789-.245-1.815l1.834-.126q.02 1.11.44 1.606.306.377.755.356.63-.03 1.064-.614.224-.3.276-.845.077-.803-.567-1.585-.521-.538-1.556-1.613-.869-.922-1.19-1.655-.346-.823-.254-1.787.166-1.738 1.418-2.632Q2.992 56 4.06 56q1.026 0 1.715.461.531.356.819.999.288.635.285 1.466l-1.875.335q-.002-.782-.33-1.215-.235-.321-.73-.321-.524 0-.848.468-.26.377-.313.935-.084.873.583 1.78.254.343.774.81.617.559.812.782.637.712.962 1.404.15.32.236.6.207.677.169 1.222zm4.96 3.32q-1.27 0-2.072-.887-.802-.886-.681-2.15l.667-6.975q.121-1.263 1.1-2.15.98-.894 2.236-.894 1.27 0 2.065.894.8.893.68 2.15l-.139 1.452h-1.99l.143-1.487q.044-.46-.253-.782-.29-.328-.75-.328-.455 0-.807.328-.352.322-.396.782l-.67 6.989q-.043.46.247.782.29.321.744.321.461 0 .813-.321.359-.321.403-.782l.168-1.752h1.99l-.17 1.773q-.122 1.27-1.1 2.157-.978.88-2.228.88zm7.19-.16h-1.913l1.22-12.735h1.912zm5.74-12.734l1.723 8.553.818-8.553h1.92l-1.219 12.735h-2.06l-1.865-8.155-.78 8.155h-1.914l1.22-12.735zm8.53 1.921h-2.039l.184-1.92h5.99l-.183 1.92H34.66L33.625 68.89h-1.92zm7.03 10.813h-1.913l1.22-12.735h1.912zm7.6 0h-5.23l1.22-12.735h1.913l-1.037 10.829h3.316zm7.21 0h-5.23l1.22-12.735h1.913l-1.037 10.829h3.316zm4.73-2.92l-.748 2.925h-1.997l3.377-12.735h2.646l.91 12.735h-2.01l-.174-2.925zm1.665-6.891l-1.193 5.02h1.425z"/></g></svg>